<?xml version="1.0" encoding="UTF-8" standalone="no"?>
<!-- Created with Inkscape (http://www.inkscape.org/) -->

<svg
   width="100pt"
   height="100pt"
   viewBox="0 0 35.277777 35.277777"
   version="1.1"
   id="svg5"
   inkscape:version="1.2.2 (b0a8486541, 2022-12-01)"
   sodipodi:docname="logo.svg"
   xml:space="preserve"
   xmlns:inkscape="http://www.inkscape.org/namespaces/inkscape"
   xmlns:sodipodi="http://sodipodi.sourceforge.net/DTD/sodipodi-0.dtd"
   xmlns="http://www.w3.org/2000/svg"
   xmlns:svg="http://www.w3.org/2000/svg"><sodipodi:namedview
     id="namedview7"
     pagecolor="#ffffff"
     bordercolor="#000000"
     borderopacity="0.25"
     inkscape:showpageshadow="2"
     inkscape:pageopacity="0.0"
     inkscape:pagecheckerboard="0"
     inkscape:deskcolor="#d1d1d1"
     inkscape:document-units="pt"
     showgrid="false"
     showborder="false"
     showguides="false"
     inkscape:zoom="5.5731762"
     inkscape:cx="80.474757"
     inkscape:cy="75.719838"
     inkscape:window-width="1920"
     inkscape:window-height="1011"
     inkscape:window-x="0"
     inkscape:window-y="0"
     inkscape:window-maximized="1"
     inkscape:current-layer="layer1" /><defs
     id="defs2"><rect
       x="12.178171"
       y="91.829368"
       width="111.16795"
       height="30.119859"
       id="rect2295" /><rect
       x="20.654178"
       y="29.625022"
       width="119.25846"
       height="61.906462"
       id="rect1991" /></defs><g
     inkscape:label="Layer 1"
     inkscape:groupmode="layer"
     id="layer1"><rect
       style="fill:#c3ab96;fill-opacity:1;stroke:none;stroke-width:0.352777;stroke-linejoin:bevel;stroke-dasharray:none;stroke-opacity:1"
       id="rect2172"
       height="31.75"
       x="1.763889"
       y="1.763889"
       width="31.75"
       ry="2.7750285" /><path
       style="fill:none;fill-opacity:1;stroke:#352500;stroke-width:1.41111113;stroke-linejoin:bevel;stroke-dasharray:none;stroke-opacity:1"
       d="M 18.015432,1.7975375 19.267755,33.422736"
       id="path2237" /><path
       style="fill:#3f1e00;fill-opacity:1;stroke:#ab7800;stroke-width:0.352777;stroke-linejoin:bevel;stroke-dasharray:none;stroke-opacity:1"
       d="M 4.6330218,12.22077 17.773793,11.916637 v 5.226452 H 4.738912"
       id="path1765" /><path
       style="fill:#ff8112;fill-opacity:1;stroke:#ffc43c;stroke-width:0.352778;stroke-linejoin:bevel;stroke-dasharray:none;stroke-opacity:1"
       d="m 19.8275,13.031289 c -0.169978,0.194967 -0.545763,0.102741 -0.710466,0.267769 -0.07317,0.07331 -0.211315,0.167733 -0.25859,0.25859 -0.0139,0.02671 0.02634,0.0916 -0.03698,0.09861 -0.02272,0.0025 -0.353365,-0.148661 -0.410178,-0.162864 -0.07658,-0.01914 -0.452661,-0.03121 -0.515081,0 -0.07168,0.03584 -0.109814,0.137683 -0.178863,0.178862 -0.05009,0.02987 -0.106598,-0.04763 -0.161553,-0.06714 -0.256664,-0.09113 -0.703669,0 -0.999741,0 -0.406223,0 -0.647428,0.2728 -0.911359,0.140835 -0.835376,-0.417688 -0.530085,-0.34326 -1.117235,-0.0052 -0.0593,0.03414 -0.174115,-0.01176 -0.24469,0 -0.112562,0.01876 -0.224988,0.03946 -0.335695,0.06714 -0.433133,0.108284 -0.857092,0.201617 -1.216369,0.369789 -0.06486,0.03036 -0.48731,-0.174588 -0.549701,-0.195385 -0.311251,-0.10375 -0.722235,0.05558 -1.011018,0.127984 -0.287799,0.07216 -0.688324,0.0045 -1.001577,0.06714 -0.1759153,0.03518 -0.3273953,0.07746 -0.4453213,0.195385 -0.12572,0.125721 -0.04945,0.369134 -0.133229,0.53685 -0.0498,0.0997 -0.489839,0.354447 -0.402047,0.53003 0.02449,0.04898 0.555808,0.274702 0.663522,0.328877 0.07951,0.03999 0.1805863,-0.02134 0.2669833,0 0.0084,0.0021 0.405517,0.44183 0.562813,0.494887 0.503852,0.169954 1.005633,-0.42927 1.219254,-0.397326 0.11286,0.01688 0.222462,0.05299 0.335695,0.06714 0.174272,0.02178 0.424222,-0.05782 0.592711,0 0.119044,0.04085 0.223016,0.2307 0.335695,0.268556 0.337862,0.113507 0.665663,-0.196244 0.983219,-0.133491 0.06856,0.01355 0.132879,0.04336 0.199319,0.06504 0.246176,0.02238 0.493822,0.03218 0.738529,0.06714 0.170128,0.02431 0.343008,0.113716 0.52531,0.06714 0.169219,-0.04323 0.298263,-0.20971 0.469973,-0.268556 0.319174,-0.109382 0.730838,-0.149776 1.064782,-0.197483 0.441302,-0.06304 2.345235,0.01177 2.56387,-0.134278 0.05233,-0.03495 0.08136,-0.09825 0.133491,-0.133491 0.14957,-0.101103 0.374576,0.178477 0.615265,0.127722 0.34842,-0.07347 0.629279,-0.307207 0.982432,-0.396015 0.269001,-0.06765 0.967748,0.09685 1.161033,0 0.199453,-0.09994 0.689361,-0.161101 0.79203,-0.459483 0.02108,-0.06125 -0.02629,-0.13513 0,-0.194336 0.05458,-0.122941 0.244727,-0.184444 0.30501,-0.30501 0.0117,-0.02341 -0.133491,-1.150807 -0.133491,-1.377136 0,-0.08816 0.03982,-0.269711 -0.05612,-0.323631 -0.18354,-0.10315 -0.756539,0.0788 -0.980072,0 -0.135017,-0.0476 -0.03331,-0.227857 -0.06425,-0.319959 -0.01306,-0.03887 -0.245088,-0.429849 -0.320221,-0.479938 -0.391235,-0.260823 -0.766151,-0.114149 -1.114088,0.06084 -0.169192,0.08509 -0.452416,-0.06179 -0.633624,0 -0.205634,0.07012 -0.766373,0.546952 -0.851825,0.727776 -0.0047,0.0099 0.02224,-0.0029 0.03278,0 0.08449,0.02312 0.177358,0.02141 0.255705,0.06058 0.157005,0.0785 0.02417,0.248573 -0.006,0.376083 z"
       id="path242" /><path
       id="path1830"
       style="fill:#3f1e00;fill-opacity:1;stroke:#ab7800;stroke-width:0.352777;stroke-linejoin:bevel;stroke-dasharray:none;stroke-opacity:1"
       d="m 19.051664,11.725639 -0.0093,0.809253 1.135332,0.351916 c 1.488953,2.516595 0.100944,3.918424 0.0031,3.827157 l -1.176672,-0.752409 -0.0072,0.625802 1.789038,1.356506 c 0.426095,-0.7605 1.633014,-2.803815 0,-5.707145 z" /><text
       xml:space="preserve"
       transform="matrix(0.26458334,0,0,0.26458334,-4.8843024,0.11812972)"
       id="text1989"
       style="font-size:10.6667px;font-family:'Nimbus Mono PS';-inkscape-font-specification:'Nimbus Mono PS';text-align:center;white-space:pre;shape-inside:url(#rect1991);fill:#80644a;fill-opacity:1;stroke:none;stroke-width:1.33333;stroke-linejoin:bevel;stroke-dasharray:none;stroke-opacity:1"><tspan
         x="29.083009"
         y="37.390358"
         id="tspan3148">username : admin
</tspan><tspan
         x="80.283203"
         y="50.723732"
         id="tspan3150">
</tspan><tspan
         x="80.283203"
         y="64.057106"
         id="tspan3152">
</tspan><tspan
         x="32.283021"
         y="77.39048"
         id="tspan3154">password: admin</tspan></text><text
       xml:space="preserve"
       style="font-size:2.82223px;font-family:'Nimbus Mono PS';-inkscape-font-specification:'Nimbus Mono PS';text-align:center;text-anchor:middle;fill:#3f1e00;fill-opacity:1;stroke:#ab7800;stroke-width:0.352777;stroke-linejoin:bevel;stroke-dasharray:none;stroke-opacity:1"
       x="25.307947"
       y="13.337902"
       id="text2047"><tspan
         sodipodi:role="line"
         id="tspan2045"
         style="stroke-width:0.352778"
         x="25.307947"
         y="13.337902"></tspan><tspan
         sodipodi:role="line"
         style="stroke-width:0.352778"
         id="tspan2049"
         x="25.307947"
         y="16.86569" /></text><text
       xml:space="preserve"
       style="font-size:2.82223px;font-family:'Nimbus Mono PS';-inkscape-font-specification:'Nimbus Mono PS';text-align:center;text-anchor:middle;fill:#3f1e00;fill-opacity:1;stroke:#ab7800;stroke-width:0.352777;stroke-linejoin:bevel;stroke-dasharray:none;stroke-opacity:1"
       x="22.314278"
       y="14.415906"
       id="text2053"><tspan
         sodipodi:role="line"
         id="tspan2051"
         style="stroke-width:0.352778"
         x="22.314278"
         y="14.415906"></tspan><tspan
         sodipodi:role="line"
         style="stroke-width:0.352778"
         id="tspan2055"
         x="22.314278"
         y="17.943693" /></text><path
       style="fill:none;fill-opacity:1;stroke:#ab7800;stroke-width:0.300298;stroke-linejoin:bevel;stroke-dasharray:none;stroke-opacity:1"
       d="M 4.6139119,13.104869 17.792412,12.885121 m 0,3.776295 H 4.7201061"
       id="path2239"
       sodipodi:nodetypes="cccc" /><text
       xml:space="preserve"
       transform="scale(0.26458334)"
       id="text2293"
       style="font-size:26.6667px;font-family:'Nimbus Mono PS';-inkscape-font-specification:'Nimbus Mono PS';text-align:center;white-space:pre;shape-inside:url(#rect2295);fill:#ff8112;fill-opacity:1;stroke:#352500;stroke-width:0.266667;stroke-linejoin:bevel;stroke-dasharray:none;stroke-opacity:1"><tspan
         x="19.761628"
         y="111.24344"
         id="tspan3156">cheedo</tspan></text></g></svg>
